<svg width="24" height="24" viewBox="0 0 24 24" fill="none" xmlns="http://www.w3.org/2000/svg">
<path fill-rule="evenodd" clip-rule="evenodd" d="M3.09844 3.06803C4.43306 1.75221 6.42825 1.25 9 1.25H15C17.5717 1.25 19.5669 1.75221 20.9016 3.06803C22.2388 4.38645 22.75 6.36036 22.75 8.90141V14.8169C22.75 16.7421 22.4582 18.3367 21.7378 19.5712C20.9998 20.8357 19.8593 21.6425 18.3416 22.0661C18.3189 22.0724 18.2958 22.0777 18.2726 22.0819C15.8538 22.5162 13.934 22.7493 12.0003 22.75C10.0664 22.7507 8.14636 22.5188 5.72667 22.0817C5.70368 22.0776 5.68089 22.0723 5.65838 22.0661C4.14067 21.6425 3.00024 20.8357 2.26224 19.5712C1.54182 18.3367 1.25 16.7421 1.25 14.8169V8.90141C1.25 6.36036 1.76119 4.38645 3.09844 3.06803ZM4.15156 4.13619C3.23881 5.03608 2.75 6.51288 2.75 8.90141V14.8169C2.75 16.6184 3.02818 17.9077 3.55776 18.8151C3.95046 19.488 4.50643 19.9938 5.28666 20.3444C6.03471 17.7669 8.86817 16.0092 12 16.0092C15.1318 16.0092 17.9653 17.7669 18.7133 20.3444C19.4936 19.9938 20.0495 19.488 20.4422 18.8151C20.9718 17.9077 21.25 16.6184 21.25 14.8169V8.90141C21.25 6.51288 20.7612 5.03608 19.8484 4.13619C18.9331 3.2337 17.4283 2.75 15 2.75H9C6.57175 2.75 5.06694 3.2337 4.15156 4.13619ZM17.2607 20.7356C16.7159 18.9714 14.6693 17.5092 12 17.5092C9.33031 17.5092 7.28355 18.9718 6.7391 20.7363C8.7599 21.0786 10.3854 21.2506 11.9997 21.25C13.6142 21.2494 15.2396 21.0764 17.2607 20.7356ZM12 7.67958C10.4242 7.67958 9.17 8.93127 9.17 10.4592C9.17 11.9898 10.4269 13.2486 12 13.2486C13.5731 13.2486 14.83 11.9898 14.83 10.4592C14.83 8.93127 13.5758 7.67958 12 7.67958ZM7.67 10.4592C7.67 8.08286 9.61585 6.17958 12 6.17958C14.3842 6.17958 16.33 8.08286 16.33 10.4592C16.33 12.8328 14.3869 14.7486 12 14.7486C9.61311 14.7486 7.67 12.8328 7.67 10.4592Z" fill="#B3B6BE"/>
</svg>
