<svg width="21" height="14" viewBox="0 0 21 14" fill="none" xmlns="http://www.w3.org/2000/svg">
<path d="M7.013 1.8418C6.79165 1.8418 6.60284 1.76693 6.44659 1.61719C6.29685 1.46745 6.22198 1.2819 6.22198 1.06055C6.22198 0.839193 6.29685 0.653646 6.44659 0.503906C6.60284 0.347656 6.79165 0.269531 7.013 0.269531H19.3763C19.5976 0.269531 19.7832 0.347656 19.9329 0.503906C20.0892 0.653646 20.1673 0.839193 20.1673 1.06055C20.1673 1.2819 20.0892 1.46745 19.9329 1.61719C19.7832 1.76693 19.5976 1.8418 19.3763 1.8418H7.013ZM7.013 7.75C6.79165 7.75 6.60284 7.67513 6.44659 7.52539C6.29685 7.36914 6.22198 7.18034 6.22198 6.95898C6.22198 6.73763 6.29685 6.55208 6.44659 6.40234C6.60284 6.2526 6.79165 6.17773 7.013 6.17773H19.3763C19.5976 6.17773 19.7832 6.2526 19.9329 6.40234C20.0892 6.55208 20.1673 6.73763 20.1673 6.95898C20.1673 7.18034 20.0892 7.36914 19.9329 7.52539C19.7832 7.67513 19.5976 7.75 19.3763 7.75H7.013ZM7.013 13.6484C6.79165 13.6484 6.60284 13.5736 6.44659 13.4238C6.29685 13.2741 6.22198 13.0885 6.22198 12.8672C6.22198 12.6458 6.29685 12.4603 6.44659 12.3105C6.60284 12.1543 6.79165 12.0762 7.013 12.0762H19.3763C19.5976 12.0762 19.7832 12.1543 19.9329 12.3105C20.0892 12.4603 20.1673 12.6458 20.1673 12.8672C20.1673 13.0885 20.0892 13.2741 19.9329 13.4238C19.7832 13.5736 19.5976 13.6484 19.3763 13.6484H7.013ZM1.45636 2.02734C1.18943 2.02734 0.961568 1.93294 0.772766 1.74414C0.583964 1.54883 0.489563 1.32096 0.489563 1.06055C0.489563 0.787109 0.583964 0.55599 0.772766 0.367188C0.961568 0.178385 1.18943 0.0839844 1.45636 0.0839844H3.12628C3.39321 0.0839844 3.62107 0.178385 3.80988 0.367188C4.00519 0.55599 4.10284 0.787109 4.10284 1.06055C4.10284 1.32096 4.00519 1.54883 3.80988 1.74414C3.62107 1.93294 3.39321 2.02734 3.12628 2.02734H1.45636ZM1.45636 7.93555C1.18943 7.93555 0.961568 7.84115 0.772766 7.65234C0.583964 7.45703 0.489563 7.22591 0.489563 6.95898C0.489563 6.69206 0.583964 6.46419 0.772766 6.27539C0.961568 6.08659 1.18943 5.99219 1.45636 5.99219H3.12628C3.39321 5.99219 3.62107 6.08659 3.80988 6.27539C4.00519 6.46419 4.10284 6.69206 4.10284 6.95898C4.10284 7.22591 4.00519 7.45703 3.80988 7.65234C3.62107 7.84115 3.39321 7.93555 3.12628 7.93555H1.45636ZM1.45636 13.834C1.18943 13.834 0.961568 13.7396 0.772766 13.5508C0.583964 13.362 0.489563 13.1341 0.489563 12.8672C0.489563 12.5938 0.583964 12.3626 0.772766 12.1738C0.961568 11.985 1.18943 11.8906 1.45636 11.8906H3.12628C3.39321 11.8906 3.62107 11.985 3.80988 12.1738C4.00519 12.3626 4.10284 12.5938 4.10284 12.8672C4.10284 13.1341 4.00519 13.362 3.80988 13.5508C3.62107 13.7396 3.39321 13.834 3.12628 13.834H1.45636Z" fill="#B3B6BE"/>
</svg>
