<?xml version="1.0" encoding="UTF-8"?>
<!-- Generated by Pixelmator Pro 3.6.8 -->
<svg width="24" height="24" viewBox="0 0 24 24" xmlns="http://www.w3.org/2000/svg">
    <path id="Path" fill="#b4b6bf" stroke="none" d="M 17.228939 0.545723 C 15.185881 0.545723 13.273373 1.470751 12 3.020624 C 10.726627 1.470699 8.814172 0.545723 6.771059 0.545723 C 3.037503 0.545723 0 3.583174 0 7.316782 C 0 10.240352 1.743297 13.621925 5.181363 17.367561 C 7.827218 20.25004 10.705477 22.48188 11.524589 23.097282 L 11.999842 23.45433 L 12.475095 23.097336 C 13.294206 22.481934 16.172573 20.250145 18.81848 17.367664 C 22.256651 13.622031 24 10.240405 24 7.316782 C 24 3.583174 20.962496 0.545723 17.228939 0.545723 Z M 17.652712 16.297529 C 15.476413 18.668413 13.135015 20.584984 11.999842 21.46829 C 10.864721 20.584984 8.523429 18.66836 6.347129 16.297476 C 3.230031 12.901555 1.582418 9.796062 1.582418 7.316782 C 1.582418 4.45577 3.910048 2.128141 6.771059 2.128141 C 8.65382 2.128141 10.392264 3.154287 11.308009 4.806171 L 12 6.054489 L 12.691991 4.806171 C 13.607683 3.154337 15.346128 2.128141 17.228939 2.128141 C 20.089952 2.128141 22.417582 4.455717 22.417582 7.316782 C 22.417582 9.796166 20.769917 12.901662 17.652712 16.297529 Z"/>
</svg>
